<mxfile host="app.diagrams.net" agent="Mozilla/5.0 (X11; Linux x86_64) AppleWebKit/537.36 (KHTML, like Gecko) Chrome/132.0.0.0 Safari/537.36" version="26.0.10">
  <diagram id="C5RBs43oDa-KdzZeNtuy" name="Page-1">
    <mxGraphModel grid="1" page="1" gridSize="10" guides="1" tooltips="1" connect="1" arrows="1" fold="1" pageScale="1" pageWidth="827" pageHeight="1169" math="0" shadow="0">
      <root>
        <mxCell id="WIyWlLk6GJQsqaUBKTNV-0" />
        <mxCell id="WIyWlLk6GJQsqaUBKTNV-1" parent="WIyWlLk6GJQsqaUBKTNV-0" />
        <mxCell id="4acqZ6gBxaXcZ7uhi6J3-6" style="edgeStyle=orthogonalEdgeStyle;rounded=0;orthogonalLoop=1;jettySize=auto;html=1;" edge="1" parent="WIyWlLk6GJQsqaUBKTNV-1" source="4acqZ6gBxaXcZ7uhi6J3-4" target="4acqZ6gBxaXcZ7uhi6J3-5">
          <mxGeometry relative="1" as="geometry" />
        </mxCell>
        <mxCell id="4acqZ6gBxaXcZ7uhi6J3-7" value="I2C" style="edgeLabel;html=1;align=center;verticalAlign=middle;resizable=0;points=[];" connectable="0" vertex="1" parent="4acqZ6gBxaXcZ7uhi6J3-6">
          <mxGeometry x="-0.0512" y="1" relative="1" as="geometry">
            <mxPoint as="offset" />
          </mxGeometry>
        </mxCell>
        <mxCell id="4acqZ6gBxaXcZ7uhi6J3-9" style="edgeStyle=orthogonalEdgeStyle;rounded=0;orthogonalLoop=1;jettySize=auto;html=1;entryX=0.5;entryY=1;entryDx=0;entryDy=0;" edge="1" parent="WIyWlLk6GJQsqaUBKTNV-1" source="4acqZ6gBxaXcZ7uhi6J3-4" target="4acqZ6gBxaXcZ7uhi6J3-8">
          <mxGeometry relative="1" as="geometry" />
        </mxCell>
        <mxCell id="4acqZ6gBxaXcZ7uhi6J3-10" value="WiFi&lt;br&gt;(ROS Packages)" style="edgeLabel;html=1;align=center;verticalAlign=middle;resizable=0;points=[];" connectable="0" vertex="1" parent="4acqZ6gBxaXcZ7uhi6J3-9">
          <mxGeometry x="0.1905" relative="1" as="geometry">
            <mxPoint as="offset" />
          </mxGeometry>
        </mxCell>
        <mxCell id="4acqZ6gBxaXcZ7uhi6J3-4" value="Raspberry PI 4" style="rounded=1;whiteSpace=wrap;html=1;" vertex="1" parent="WIyWlLk6GJQsqaUBKTNV-1">
          <mxGeometry x="300" y="340" width="120" height="60" as="geometry" />
        </mxCell>
        <mxCell id="4acqZ6gBxaXcZ7uhi6J3-5" value="Servo Control-Board" style="rounded=1;whiteSpace=wrap;html=1;" vertex="1" parent="WIyWlLk6GJQsqaUBKTNV-1">
          <mxGeometry x="500" y="340" width="120" height="60" as="geometry" />
        </mxCell>
        <mxCell id="4acqZ6gBxaXcZ7uhi6J3-13" style="edgeStyle=orthogonalEdgeStyle;rounded=0;orthogonalLoop=1;jettySize=auto;html=1;entryX=1;entryY=0.5;entryDx=0;entryDy=0;" edge="1" parent="WIyWlLk6GJQsqaUBKTNV-1" source="4acqZ6gBxaXcZ7uhi6J3-8" target="4acqZ6gBxaXcZ7uhi6J3-12">
          <mxGeometry relative="1" as="geometry" />
        </mxCell>
        <mxCell id="4acqZ6gBxaXcZ7uhi6J3-14" value="WiFi&lt;div&gt;(ROS Packages)&lt;/div&gt;" style="edgeLabel;html=1;align=center;verticalAlign=middle;resizable=0;points=[];" connectable="0" vertex="1" parent="4acqZ6gBxaXcZ7uhi6J3-13">
          <mxGeometry x="-0.1019" relative="1" as="geometry">
            <mxPoint as="offset" />
          </mxGeometry>
        </mxCell>
        <mxCell id="4acqZ6gBxaXcZ7uhi6J3-8" value="Cloud Server&lt;br&gt;&quot;localhost&quot;" style="rounded=1;whiteSpace=wrap;html=1;" vertex="1" parent="WIyWlLk6GJQsqaUBKTNV-1">
          <mxGeometry x="300" y="180" width="120" height="60" as="geometry" />
        </mxCell>
        <mxCell id="4acqZ6gBxaXcZ7uhi6J3-11" value="LiDAR &amp;amp; Camera data" style="text;html=1;align=center;verticalAlign=middle;whiteSpace=wrap;rounded=0;" vertex="1" parent="WIyWlLk6GJQsqaUBKTNV-1">
          <mxGeometry x="359" y="300" width="110" height="30" as="geometry" />
        </mxCell>
        <mxCell id="4acqZ6gBxaXcZ7uhi6J3-16" style="edgeStyle=orthogonalEdgeStyle;rounded=0;orthogonalLoop=1;jettySize=auto;html=1;" edge="1" parent="WIyWlLk6GJQsqaUBKTNV-1" source="4acqZ6gBxaXcZ7uhi6J3-12" target="4acqZ6gBxaXcZ7uhi6J3-15">
          <mxGeometry relative="1" as="geometry" />
        </mxCell>
        <mxCell id="4acqZ6gBxaXcZ7uhi6J3-18" value="ROS2" style="edgeLabel;html=1;align=center;verticalAlign=middle;resizable=0;points=[];" connectable="0" vertex="1" parent="4acqZ6gBxaXcZ7uhi6J3-16">
          <mxGeometry x="-0.0286" y="-1" relative="1" as="geometry">
            <mxPoint as="offset" />
          </mxGeometry>
        </mxCell>
        <mxCell id="4acqZ6gBxaXcZ7uhi6J3-12" value="User&#39;s Computer" style="rounded=1;whiteSpace=wrap;html=1;" vertex="1" parent="WIyWlLk6GJQsqaUBKTNV-1">
          <mxGeometry x="50" y="180" width="120" height="60" as="geometry" />
        </mxCell>
        <mxCell id="4acqZ6gBxaXcZ7uhi6J3-15" value="SLAM" style="rounded=1;whiteSpace=wrap;html=1;" vertex="1" parent="WIyWlLk6GJQsqaUBKTNV-1">
          <mxGeometry x="50" y="350" width="120" height="60" as="geometry" />
        </mxCell>
      </root>
    </mxGraphModel>
  </diagram>
</mxfile>
